<?xml version="1.0" encoding="UTF-8"?>
<svg id="Layer_2" xmlns="http://www.w3.org/2000/svg" viewBox="0 0 224.01 53.21">
  <defs>
    <style>.cls-1{fill:#03a89c;}.cls-2{fill:#fff;}.cls-3{fill:#b3b3b3;}</style>
  </defs>
  <g id="Layer_1-2">
    <g>
      <g>
        <path class="cls-2"
              d="M28.37,37.6c7.03,0,12.75-5.72,12.76-12.75h0c0-9.24-4.87-17.86-12.76-22.65-7.88,4.79-12.76,13.41-12.76,22.64h0c0,7.04,5.72,12.76,12.76,12.76Zm-5.18-13.09c1.87-2.86,5.7-3.67,8.56-1.8,1.13,.74,1.94,1.78,2.39,2.95-.16-.19-.34-.36-.56-.51-1.13-.74-2.65-.42-3.39,.71-.74,1.13-.42,2.65,.71,3.39,1.13,.74,2.65,.42,3.39-.71,.12-.18,.2-.37,.27-.56-.01,1.13-.34,2.28-1,3.3-1.87,2.86-5.7,3.67-8.56,1.8-2.86-1.87-3.67-5.7-1.8-8.56Z"/>
        <path class="cls-2"
              d="M43.37,48.04c-1.94,.57-3.9,.86-5.83,.86-6.21,0-11.36-2.9-15.91-5.45-2.01-1.13-3.9-2.19-5.72-2.92-2.18-.87-4.88-1.32-8.04-1.32-1.78,0-3.33,.15-4.33,.27-1.01,2.74-1.56,5.63-1.62,8.56,3.89,2.15,8.29,3.28,12.75,3.28s9.22-1.23,13.23-3.55l.48-.28,.48,.28c4.01,2.32,8.59,3.55,13.24,3.55s8.85-1.13,12.74-3.27c-.05-2.58-.5-5.13-1.28-7.57-2.24,3.82-5.46,6.19-10.18,7.57Z"/>
        <path class="cls-1"
              d="M25,33.07c2.86,1.87,6.7,1.06,8.56-1.8,.67-1.02,.99-2.16,1-3.3-.06,.19-.15,.38-.27,.56-.74,1.13-2.26,1.45-3.39,.71-1.13-.74-1.45-2.26-.71-3.39,.74-1.13,2.25-1.45,3.39-.71,.22,.14,.41,.32,.56,.51-.45-1.17-1.26-2.21-2.39-2.95-2.86-1.87-6.7-1.06-8.56,1.8-1.87,2.86-1.06,6.7,1.8,8.56Z"/>
        <path class="cls-3"
              d="M16.6,38.75c1.94,.78,3.89,1.87,5.95,3.03,4.35,2.44,9.27,5.21,14.98,5.21,1.75,0,3.53-.26,5.3-.78,4.83-1.41,7.79-3.86,9.82-8.12-.1-.24-.21-.47-.32-.7-.1-.21-.19-.43-.3-.64-.24-.47-.48-.93-.74-1.39-.28-.48-.57-.94-.87-1.4-.09-.14-.19-.27-.28-.4-.22-.32-.45-.64-.68-.95-.11-.15-.23-.29-.35-.44-.23-.29-.46-.57-.7-.85-.12-.14-.25-.28-.37-.42-.25-.28-.5-.55-.76-.82-.12-.13-.25-.25-.37-.37-.28-.28-.57-.54-.86-.81-.11-.1-.23-.21-.34-.31-.33-.29-.67-.56-1.02-.83-.09-.07-.17-.14-.25-.2-.48-.37-.97-.71-1.48-1.04-.83,7.3-7.04,13-14.57,13s-13.74-5.7-14.57-13c-.03,.02-.06,.04-.1,.06-.1,.06-.19,.13-.29,.2-.36,.24-.71,.49-1.05,.75-.15,.11-.29,.23-.43,.34-.29,.23-.57,.46-.85,.69-.16,.13-.31,.27-.46,.41-.25,.23-.51,.46-.75,.7-.15,.15-.31,.3-.46,.46-.24,.24-.46,.49-.69,.74-.14,.16-.29,.32-.43,.48-.22,.26-.44,.53-.65,.8-.13,.16-.26,.32-.39,.49-.22,.3-.44,.6-.65,.91-.1,.15-.21,.29-.3,.43-.3,.46-.6,.92-.87,1.4-.23,.41-.45,.82-.66,1.24-.1,.2-.2,.41-.3,.62-.04,.08-.08,.17-.11,.25,.99-.09,2.18-.17,3.49-.17,3.4,0,6.34,.49,8.75,1.45Z"/>
        <path
          d="M52.94,34.41c-2.4-4.15-5.81-7.63-9.91-10.1-.19-9.89-5.59-19.06-14.18-24.03l-.48-.28-.48,.28c-8.59,4.97-13.99,14.14-14.18,24.02-4.1,2.47-7.52,5.95-9.92,10.11C1.31,38.72,0,43.62,0,48.58v.55l.48,.28c4.3,2.49,9.2,3.8,14.18,3.8s9.53-1.22,13.71-3.54c4.19,2.32,8.92,3.54,13.71,3.54s9.88-1.32,14.18-3.8l.47-.28v-.55c0-4.97-1.31-9.87-3.8-14.18ZM15.62,24.84c0-9.23,4.87-17.85,12.76-22.64,7.88,4.79,12.76,13.41,12.76,22.65h0c0,7.03-5.73,12.75-12.76,12.75s-12.76-5.72-12.76-12.76h0Zm-11.13,12.37c.1-.21,.2-.42,.3-.62,.21-.42,.43-.83,.66-1.24,.28-.48,.57-.94,.87-1.4,.1-.15,.2-.29,.3-.43,.21-.31,.43-.61,.65-.91,.13-.17,.26-.33,.39-.49,.21-.27,.43-.54,.65-.8,.14-.16,.29-.32,.43-.48,.23-.25,.46-.5,.69-.74,.15-.15,.3-.3,.46-.46,.25-.24,.5-.47,.75-.7,.15-.14,.3-.28,.46-.41,.28-.24,.56-.47,.85-.69,.14-.11,.28-.23,.43-.34,.34-.26,.69-.51,1.05-.75,.1-.07,.19-.14,.29-.2,.03-.02,.06-.04,.1-.06,.82,7.31,7.04,13,14.57,13s13.74-5.69,14.57-13c.5,.33,1,.68,1.48,1.04,.09,.07,.17,.14,.25,.2,.35,.27,.69,.55,1.02,.83,.12,.1,.23,.2,.34,.31,.29,.26,.58,.53,.86,.81,.13,.12,.25,.25,.37,.37,.26,.27,.51,.54,.76,.82,.13,.14,.25,.28,.37,.42,.24,.28,.47,.56,.7,.85,.12,.15,.24,.29,.35,.44,.23,.31,.46,.63,.68,.95,.09,.13,.19,.26,.28,.4,.3,.46,.6,.93,.87,1.4,.26,.46,.51,.92,.74,1.39,.1,.21,.2,.43,.3,.64,.11,.23,.22,.46,.32,.7-2.03,4.27-4.99,6.71-9.82,8.12-1.76,.52-3.54,.78-5.3,.78-5.71,0-10.64-2.77-14.98-5.21-2.06-1.16-4.01-2.25-5.95-3.03-2.41-.96-5.35-1.45-8.75-1.45-1.31,0-2.5,.07-3.49,.17,.04-.08,.07-.17,.11-.25Zm37.6,14.09c-4.65,0-9.22-1.23-13.24-3.55l-.48-.28-.48,.28c-4.01,2.32-8.59,3.55-13.23,3.55s-8.85-1.13-12.75-3.28c.06-2.93,.62-5.82,1.62-8.56,1-.12,2.55-.27,4.33-.27,3.15,0,5.86,.44,8.04,1.32,1.82,.73,3.72,1.79,5.72,2.92,4.55,2.56,9.71,5.45,15.91,5.45,1.93,0,3.9-.29,5.83-.86,4.72-1.38,7.93-3.76,10.18-7.57,.79,2.44,1.23,5,1.28,7.57-3.89,2.14-8.29,3.27-12.74,3.27Z"/>
      </g>
      <g>
        <path
          d="M67.97,28.24v8.45h-4.46V12.7h7.81c1.6,0,2.99,.19,4.16,.56,1.17,.38,2.14,.9,2.9,1.58,.76,.67,1.33,1.48,1.69,2.42,.36,.94,.55,1.97,.55,3.09s-.19,2.23-.58,3.19c-.39,.97-.97,1.8-1.74,2.5-.77,.7-1.74,1.24-2.9,1.63-1.16,.39-2.52,.58-4.08,.58h-3.35Zm0-3.48h3.35c.82,0,1.53-.1,2.14-.31,.61-.2,1.11-.5,1.51-.88,.4-.38,.7-.85,.9-1.39,.2-.55,.3-1.16,.3-1.83s-.1-1.22-.3-1.74c-.2-.52-.5-.96-.9-1.33-.4-.37-.9-.64-1.51-.84-.61-.19-1.32-.29-2.14-.29h-3.35v8.61Z"/>
        <path
          d="M86.51,36.69V19.67h2.41c.42,0,.71,.08,.88,.23,.17,.15,.28,.42,.33,.8l.25,2.06c.61-1.05,1.32-1.88,2.14-2.49,.82-.61,1.74-.91,2.75-.91,.84,0,1.54,.19,2.09,.58l-.53,3.07c-.03,.2-.11,.34-.22,.42-.11,.08-.26,.12-.45,.12-.17,0-.39-.04-.68-.12-.29-.08-.67-.12-1.14-.12-.85,0-1.58,.24-2.19,.71-.61,.47-1.12,1.16-1.54,2.07v10.6h-4.1Z"/>
        <path
          d="M109.99,19.4c1.27,0,2.42,.2,3.46,.61,1.03,.41,1.92,.99,2.65,1.74,.73,.75,1.29,1.67,1.69,2.75,.4,1.08,.6,2.3,.6,3.63s-.2,2.57-.6,3.65c-.4,1.08-.96,2.01-1.69,2.77-.73,.76-1.61,1.35-2.65,1.76-1.03,.41-2.19,.61-3.46,.61s-2.43-.21-3.47-.61c-1.04-.41-1.93-1-2.66-1.76-.74-.76-1.3-1.69-1.71-2.77-.4-1.08-.61-2.3-.61-3.65s.2-2.55,.61-3.63c.4-1.08,.97-2,1.71-2.75,.74-.75,1.62-1.33,2.66-1.74,1.04-.41,2.2-.61,3.47-.61Zm0,14.38c1.42,0,2.46-.47,3.14-1.43,.68-.95,1.02-2.34,1.02-4.18s-.34-3.24-1.02-4.2c-.68-.96-1.73-1.44-3.14-1.44s-2.5,.48-3.19,1.45c-.69,.97-1.03,2.36-1.03,4.19s.34,3.21,1.03,4.17c.69,.96,1.75,1.44,3.19,1.44Z"/>
        <path
          d="M129.83,36.95c-1.47,0-2.6-.42-3.4-1.25-.8-.83-1.19-1.99-1.19-3.46v-9.51h-1.72c-.22,0-.41-.07-.57-.22-.16-.14-.24-.36-.24-.65v-1.63l2.74-.45,.86-4.64c.04-.22,.15-.39,.31-.51,.16-.12,.36-.18,.61-.18h2.12v5.36h4.48v2.92h-4.48v9.22c0,.53,.13,.95,.4,1.25,.26,.3,.62,.45,1.06,.45,.25,0,.47-.03,.64-.09,.17-.06,.32-.12,.45-.19,.13-.07,.24-.13,.34-.19,.1-.06,.2-.09,.3-.09,.12,0,.22,.03,.3,.09,.08,.06,.16,.15,.25,.27l1.23,1.99c-.6,.5-1.28,.87-2.06,1.13-.77,.25-1.58,.38-2.41,.38Z"/>
        <path
          d="M147,19.4c1.27,0,2.42,.2,3.46,.61,1.03,.41,1.92,.99,2.65,1.74,.73,.75,1.29,1.67,1.69,2.75,.4,1.08,.6,2.3,.6,3.63s-.2,2.57-.6,3.65c-.4,1.08-.96,2.01-1.69,2.77-.73,.76-1.61,1.35-2.65,1.76-1.03,.41-2.19,.61-3.46,.61s-2.43-.21-3.47-.61c-1.04-.41-1.93-1-2.66-1.76-.73-.76-1.3-1.69-1.71-2.77-.4-1.08-.61-2.3-.61-3.65s.2-2.55,.61-3.63c.4-1.08,.97-2,1.71-2.75,.74-.75,1.62-1.33,2.66-1.74,1.04-.41,2.2-.61,3.47-.61Zm0,14.38c1.42,0,2.46-.47,3.14-1.43,.68-.95,1.02-2.34,1.02-4.18s-.34-3.24-1.02-4.2c-.68-.96-1.73-1.44-3.14-1.44s-2.5,.48-3.18,1.45-1.03,2.36-1.03,4.19,.34,3.21,1.03,4.17c.69,.96,1.75,1.44,3.18,1.44Z"/>
        <path
          d="M161.25,36.69V19.67h2.51c.53,0,.88,.25,1.04,.75l.28,1.34c.34-.35,.71-.67,1.09-.96,.38-.29,.78-.54,1.21-.75,.43-.21,.88-.37,1.37-.48,.49-.11,1.02-.17,1.59-.17,.93,0,1.75,.16,2.47,.47,.72,.32,1.32,.76,1.8,1.33,.48,.57,.85,1.25,1.09,2.04,.25,.79,.37,1.66,.37,2.61v10.83h-4.1v-10.83c0-1.04-.24-1.84-.72-2.41-.48-.57-1.2-.85-2.16-.85-.71,0-1.37,.16-1.99,.48-.62,.32-1.21,.76-1.76,1.31v12.31h-4.1Z"/>
        <path
          d="M187.74,14.71c0,.35-.07,.69-.22,1-.14,.31-.33,.58-.57,.81-.24,.23-.52,.42-.84,.56-.32,.14-.66,.21-1.03,.21s-.69-.07-1-.21c-.32-.14-.59-.32-.82-.56-.23-.23-.42-.5-.56-.81-.14-.31-.21-.64-.21-1s.07-.71,.21-1.03c.14-.32,.32-.6,.56-.83,.23-.23,.51-.42,.82-.56,.32-.14,.65-.21,1-.21s.71,.07,1.03,.21c.32,.14,.6,.32,.84,.56,.24,.23,.43,.51,.57,.83,.14,.32,.22,.66,.22,1.03Zm-.61,4.96v17.02h-4.1V19.67h4.1Z"/>
        <path
          d="M195.14,36.69v-13.94l-1.48-.23c-.32-.06-.58-.17-.77-.33-.19-.17-.29-.4-.29-.7v-1.68h2.54v-1.26c0-.97,.15-1.85,.44-2.62,.29-.77,.71-1.43,1.26-1.97,.55-.54,1.21-.96,2-1.24,.79-.29,1.67-.43,2.65-.43,.79,0,1.52,.1,2.19,.32l-.08,2.06c-.02,.32-.17,.52-.45,.6-.28,.08-.6,.12-.96,.12-.49,0-.92,.05-1.3,.16-.38,.11-.71,.29-.97,.55-.27,.26-.47,.6-.61,1.03-.14,.43-.21,.95-.21,1.58v1.13h4.43v2.92h-4.3v13.95h-4.1Z"/>
        <path
          d="M214.74,41.37c-.12,.29-.28,.51-.47,.65-.19,.15-.49,.22-.89,.22h-3.05l3.19-6.82-6.89-15.76h3.58c.33,0,.59,.08,.76,.23,.18,.15,.31,.33,.4,.53l3.63,8.83c.12,.29,.23,.59,.32,.9,.09,.31,.17,.62,.23,.93,.09-.32,.19-.63,.29-.93,.11-.3,.22-.6,.34-.91l3.42-8.81c.09-.22,.24-.4,.44-.55,.2-.14,.43-.22,.69-.22h3.28l-9.27,21.7Z"/>
      </g>
    </g>
  </g>
</svg>
