<?xml version="1.0" encoding="UTF-8"?>
<svg id="Layer_2" xmlns="http://www.w3.org/2000/svg" viewBox="0 0 72.3 54.03">
  <defs>
    <style>.cls-1{fill:#03a89c;}</style>
  </defs>
  <g id="Layer_1-2">
    <g>
      <path class="cls-1"
            d="M5.92,25.94c1.29,0,2.51-.42,3.56-1.22l3.23,3.23c-3.1,3.68-2.88,9.16,.53,12.58,1.76,1.76,4.1,2.72,6.59,2.72s4.83-.97,6.59-2.72c3.41-3.41,3.63-8.89,.54-12.57l5.75-5.75c2.38,2.21,5.46,3.42,8.71,3.42s6.33-1.21,8.71-3.42l5.75,5.75c-2.92,3.47-2.89,8.55,0,11.98l-3.48,3.48c-2.36-1.79-5.66-1.59-7.75,.51-2.31,2.31-2.31,6.07,0,8.38,1.12,1.12,2.61,1.73,4.19,1.73s3.07-.62,4.19-1.73c2.1-2.1,2.3-5.39,.51-7.75l3.48-3.48c1.67,1.41,3.77,2.18,5.99,2.18,2.49,0,4.83-.97,6.59-2.72,3.63-3.63,3.63-9.54,0-13.17-1.76-1.76-4.1-2.73-6.59-2.73-2.19,0-4.31,.78-5.98,2.19l-5.78-5.78c4.24-5.05,3.92-12.6-.75-17.28-5-5-13.13-5-18.12,0-4.68,4.68-4.99,12.22-.75,17.28l-5.78,5.78c-3.44-2.9-8.51-2.9-11.96,0l-3.23-3.23c.8-1.05,1.22-2.28,1.22-3.56,0-1.58-.62-3.07-1.74-4.19-1.12-1.12-2.6-1.73-4.19-1.73s-3.07,.62-4.19,1.73c-2.31,2.31-2.31,6.07,0,8.38,1.12,1.12,2.61,1.74,4.19,1.74Zm45.95,25.22c-1.68,1.68-4.42,1.68-6.1,0-1.68-1.68-1.68-4.42,0-6.1,.81-.81,1.9-1.26,3.05-1.26s2.24,.45,3.05,1.26c1.68,1.68,1.68,4.42,0,6.1Zm11.12-24.93c2.06,0,3.99,.8,5.45,2.26,3,3,3,7.89,0,10.89-1.45,1.45-3.39,2.25-5.45,2.25s-3.99-.8-5.45-2.25c-3-3-3-7.89,0-10.89,1.45-1.46,3.39-2.26,5.45-2.26ZM41.41,1.61c3,0,5.81,1.16,7.92,3.28,4.37,4.37,4.37,11.48,0,15.84-4.37,4.37-11.48,4.37-15.84,0-4.37-4.37-4.37-11.48,0-15.84,2.11-2.11,4.93-3.28,7.92-3.28ZM14.38,28.48c3.01-3.01,7.89-3,10.89,0,3,3,3,7.89,0,10.89-3.01,3.01-7.89,3-10.89,0s-3-7.89,0-10.89ZM5.92,15.7c1.15,0,2.24,.45,3.05,1.26,.82,.82,1.26,1.9,1.26,3.05s-.45,2.24-1.26,3.05c-.77,.78-1.89,1.22-3.05,1.22h0c-1.16,0-2.28-.45-3.05-1.22-1.68-1.68-1.68-4.42,0-6.1,.81-.81,1.9-1.26,3.05-1.26Z"/>
      <path class="cls-1"
            d="M34.46,13.7c.44,0,.81-.36,.81-.81,0-.2,.01-.39,.03-.58,.28-2.94,2.61-5.28,5.55-5.56,.19-.02,.39-.03,.59-.03,.44,0,.81-.36,.81-.81s-.36-.81-.81-.81c-4.29,0-7.78,3.49-7.78,7.78,0,.44,.36,.81,.81,.81Z"/>
      <path class="cls-1"
            d="M15.67,34.86c.44,0,.81-.36,.81-.81,0-1.82,1.48-3.3,3.3-3.3,.44,0,.81-.36,.81-.81s-.36-.81-.81-.81c-2.71,0-4.91,2.2-4.91,4.91,0,.44,.36,.81,.81,.81Z"/>
      <path class="cls-1"
            d="M58.69,34.47c.44,0,.81-.36,.81-.81,0-1.82,1.48-3.3,3.3-3.3,.44,0,.81-.36,.81-.81s-.36-.81-.81-.81c-2.71,0-4.91,2.2-4.91,4.91,0,.44,.36,.81,.81,.81Z"/>
    </g>
  </g>
</svg>
