<?xml version="1.0" encoding="UTF-8"?>
<svg id="Layer_2" xmlns="http://www.w3.org/2000/svg" viewBox="0 0 19.9 19.02">
  <defs>
    <style>.cls-1{fill:#03a89c;fill-rule:evenodd;}</style>
  </defs>
  <g id="Layer_1-2">
    <g>
      <path class="cls-1"
            d="M4.52,19.02V6.19H.25v12.83H4.52ZM2.39,4.44c1.49,0,2.41-.99,2.41-2.22-.03-1.26-.93-2.22-2.39-2.22S0,.96,0,2.22s.93,2.22,2.36,2.22h.03Z"/>
      <path class="cls-1"
            d="M7.37,19.02h4.1v-7.17c0-.38,.03-.77,.14-1.04,.3-.77,.97-1.56,2.1-1.56,1.48,0,2.08,1.18,2.08,2.9v6.87h4.1v-7.36c0-3.94-2.02-5.78-4.72-5.78-2.21,0-3.19,1.29-3.72,2.16h.03v-1.86H7.37c.05,1.2,0,12.83,0,12.83h0Z"/>
    </g>
  </g>
</svg>
