<?xml version="1.0" encoding="UTF-8"?>
<svg id="Layer_2" xmlns="http://www.w3.org/2000/svg" viewBox="0 0 52.81 70.33">
  <defs>
    <style>.cls-1{fill:#03a89c;}</style>
  </defs>
  <g id="Layer_1-2">
    <g>
      <path class="cls-1"
            d="M8.46,57.88c-.26,0-.51,.13-.66,.34L.15,69.06c-.18,.25-.2,.57-.06,.84,.14,.27,.41,.43,.72,.43H52c.3,0,.58-.17,.72-.43s.12-.59-.06-.83l-7.65-10.84c-.15-.21-.4-.34-.66-.34h-8.67l-2.74-5.03c4.54-1.59,8.49-4.66,11.13-8.66l.56-.85c6.41-9.7,4-23.1-5.35-29.99l.05-.07c.27-.41,.62-.76,1.03-1.04l3.97-2.73c.67-.46,1.07-1.23,1.06-2.04,0-.81-.42-1.57-1.1-2.02L36.65,.4c-.68-.45-1.53-.53-2.29-.22-.75,.31-1.3,.98-1.46,1.77l-.96,4.73c-.1,.48-.29,.94-.56,1.35l-7.4,11.2c-.39,.59-.53,1.3-.38,1.99,.14,.69,.54,1.29,1.13,1.68l3.52,2.32c.58,.39,1.29,.53,1.99,.39,.69-.14,1.29-.54,1.68-1.14l2.24-3.39c.92,.73,1.72,1.56,2.39,2.48,3.15,4.32,3.29,10.21,.35,14.66l-.56,.85c-.79,1.19-1.77,2.25-2.92,3.12-2.66,2.04-5.96,2.94-9.28,2.55-.66-.08-1.31-.2-1.93-.37-.73-.2-1.3-.72-1.56-1.43-.26-.71-.18-1.47,.23-2.09l4.72-7.15,4.44,2.93c.36,.24,.88,.13,1.12-.23,.12-.18,.16-.39,.12-.61-.04-.21-.17-.39-.34-.51L14.43,24.41c-.18-.12-.39-.16-.6-.12-.21,.04-.39,.17-.51,.35-.24,.37-.14,.87,.23,1.12l4.33,2.86-6.8,10.29c-1.23,1.86-1.66,4.08-1.21,6.26,.45,2.18,1.71,4.06,3.57,5.29,1.89,1.25,3.98,2.2,6.21,2.83l-2.51,4.6H8.46ZM32.85,20.16l-2.27,3.43c-.15,.23-.39,.39-.66,.44-.27,.06-.54,0-.78-.15l-3.52-2.32c-.23-.15-.39-.39-.44-.66-.06-.27,0-.55,.15-.78l2.27-3.43,5.25,3.47Zm-13.71,23.37c.45,1.2,1.41,2.08,2.64,2.41,.56,.15,1.16,.28,1.83,.37,.05,0,.1,.01,.16,.02-.38,.32-.71,.71-.96,1.15l.18,.14-.22-.09-2.34,4.29c-2.2-.57-4.25-1.49-6.12-2.72-3.09-2.04-3.95-6.22-1.9-9.32l6.73-10.18,5.04,3.33-4.65,7.04c-.7,1.06-.85,2.36-.4,3.55Zm-.17,14.35l5.22-9.58c.44-.81,1.29-1.32,2.22-1.32s1.77,.5,2.22,1.32l5.22,9.58h-14.88ZM38.38,14.7c8.61,6.39,10.82,18.79,4.9,27.75l-.56,.85c-2.5,3.79-6.25,6.66-10.56,8.12l-2.12-3.89c-.31-.57-.75-1.05-1.29-1.42,1.66-.37,3.23-1.02,4.66-1.94,1.72-1.1,3.15-2.51,4.27-4.2l.56-.85c3.53-5.34,3.08-12.47-1.07-17.35-.65-.76-1.36-1.45-2.11-2.03l3.33-5.04Zm-5.68-5.74l.02-.03c.39-.59,.65-1.23,.79-1.92l.96-4.73c.06-.28,.24-.5,.5-.61,.26-.11,.55-.08,.78,.08l7.64,5.05c.24,.16,.37,.41,.38,.69,0,.28-.13,.54-.36,.7l-3.97,2.73c-.58,.4-1.07,.9-1.46,1.48l-.02,.03-5.25-3.47Zm4.36,4.81l-3.33,5.04-5.25-3.47,3.33-5.04,5.25,3.47ZM2.36,68.72l6.52-9.23H43.93l6.52,9.23H2.36Z"/>
      <path class="cls-1"
            d="M6.43,65.32c0,.44,.36,.81,.81,.81H45.85c.44,0,.81-.36,.81-.81s-.36-.81-.81-.81H7.23c-.44,0-.81,.36-.81,.81Z"/>
    </g>
  </g>
</svg>
