<?xml version="1.0" encoding="UTF-8"?>
<svg id="Layer_2" xmlns="http://www.w3.org/2000/svg" viewBox="0 0 73.05 55.54">
  <defs>
    <style>.cls-1{fill:#03a89c;}</style>
  </defs>
  <g id="Layer_1-2">
    <g>
      <path class="cls-1"
            d="M29.64,14.82C29.64,6.65,22.99,0,14.82,0S0,6.65,0,14.82s6.65,14.82,14.82,14.82,14.82-6.65,14.82-14.82ZM14.82,1.61c7.28,0,13.21,5.93,13.21,13.21s-5.93,13.21-13.21,13.21S1.61,22.11,1.61,14.82,7.54,1.61,14.82,1.61Z"/>
      <path class="cls-1"
            d="M51.43,10.03l-23.89,23.89c-4.94,4.94-4.94,12.98,0,17.92,2.39,2.39,5.57,3.7,8.96,3.7s6.57-1.32,8.96-3.7l23.89-23.89c4.94-4.94,4.94-12.98,0-17.91s-12.98-4.94-17.92,0Zm-14.94,43.91c-2.95,0-5.73-1.15-7.82-3.24-4.31-4.31-4.31-11.33,0-15.64l11.38-11.38,15.64,15.64-11.38,11.38c-2.09,2.09-4.87,3.24-7.82,3.24ZM71.44,18.99c0,2.95-1.15,5.73-3.24,7.82l-11.38,11.38-15.64-15.64,11.38-11.38c4.31-4.31,11.32-4.31,15.64,0,2.09,2.09,3.24,4.87,3.24,7.82Z"/>
      <path class="cls-1"
            d="M7.96,22.49c.21,0,.42-.08,.57-.24l13.73-13.73c.31-.31,.31-.82,0-1.14-.31-.31-.82-.31-1.14,0L7.39,21.12c-.31,.31-.31,.82,0,1.14,.15,.15,.35,.24,.57,.24Z"/>
      <path class="cls-1"
            d="M60.39,11.56c-2.31,0-4.48,.9-6.1,2.53-.31,.31-.31,.82,0,1.14,.31,.31,.82,.31,1.14,0,1.32-1.33,3.09-2.05,4.97-2.05s3.64,.73,4.97,2.05c.15,.15,.35,.24,.57,.24s.42-.08,.57-.24c.31-.31,.31-.82,0-1.14-1.63-1.63-3.8-2.53-6.1-2.53Z"/>
    </g>
  </g>
</svg>
