<?xml version="1.0" encoding="UTF-8"?>
<svg id="Layer_2" xmlns="http://www.w3.org/2000/svg" viewBox="0 0 21.25 17.27">
  <defs>
    <style>.cls-1{fill:#03a89c;}</style>
  </defs>
  <g id="Layer_1-2">
    <path class="cls-1"
          d="M19.08,4.3c0,.19,.01,.37,.01,.56,0,5.76-4.39,12.41-12.4,12.41-2.46,0-4.75-.72-6.68-1.96,.34,.04,.69,.06,1.04,.06,2.04,0,3.92-.7,5.42-1.87-1.91-.03-3.52-1.29-4.07-3.03,.27,.05,.54,.08,.82,.08,.4,0,.78-.05,1.15-.15-1.99-.4-3.5-2.16-3.5-4.27v-.06c.59,.33,1.26,.52,1.98,.55-1.17-.78-1.94-2.12-1.94-3.63,0-.8,.22-1.55,.59-2.19C3.63,3.44,6.84,5.17,10.47,5.35c-.07-.32-.11-.65-.11-.99,0-2.41,1.95-4.36,4.36-4.36,1.25,0,2.39,.53,3.18,1.38,.99-.19,1.93-.56,2.77-1.06-.33,1.02-1.02,1.87-1.92,2.41,.88-.11,1.72-.34,2.5-.69-.58,.88-1.32,1.64-2.18,2.26Z"/>
  </g>
</svg>
